<!DOCTYPE svg PUBLIC "-//W3C//DTD SVG 1.1//EN" "http://www.w3.org/Graphics/SVG/1.1/DTD/svg11.dtd">
<!-- Uploaded to: SVG Repo, www.svgrepo.com, Transformed by: SVG Repo Mixer Tools -->
<svg fill="#b45309" version="1.1" id="Capa_1" xmlns="http://www.w3.org/2000/svg" xmlns:xlink="http://www.w3.org/1999/xlink" width="800px" height="800px" viewBox="0 0 45.951 45.951" xml:space="preserve">
<g id="SVGRepo_bgCarrier" stroke-width="0"/>
<g id="SVGRepo_tracerCarrier" stroke-linecap="round" stroke-linejoin="round"/>
<g id="SVGRepo_iconCarrier"> <g> <g> <path d="M41.202,36.592l-8.635-7.438c-0.221-0.191-0.549-0.188-0.771,0.002l-6.23,5.435l-2.823-15.23 c-0.045-0.241-0.255-0.394-0.5-0.394H9.871c-0.245,0-0.455,0.153-0.5,0.394L4.553,45.368c-0.027,0.147,0.013,0.293,0.108,0.409 c0.098,0.115,0.24,0.174,0.392,0.174h7.401v-5.997c0-1.994,1.626-3.61,3.62-3.61s3.62,1.616,3.62,3.61v5.997h18.645 c0.28,0,0.552-0.221,0.552-0.502v-7.834h1.927c0.247,0,0.466-0.146,0.552-0.378S41.39,36.752,41.202,36.592z"/> <path d="M10.073,16.881h11.969c0.153,0,0.299-0.091,0.395-0.209c0.097-0.119,0.135-0.289,0.104-0.438l-1.599-7.689h0.264 c0.428,0,0.815-0.243,0.998-0.628c0.184-0.386,0.127-0.84-0.144-1.17l-5.191-6.343C16.658,0.147,16.343-0.001,16.011,0 c-0.335,0-0.649,0.152-0.858,0.411l-5.102,6.343C9.783,7.085,9.731,7.537,9.915,7.92c0.185,0.383,0.571,0.624,0.996,0.624h0.265 l-1.601,7.678c-0.031,0.15,0.007,0.329,0.104,0.448C9.775,16.788,9.92,16.881,10.073,16.881z"/> </g> </g> </g>
</svg>